<svg xmlns="http://www.w3.org/2000/svg"  viewBox="0 0 48 48" width="48px" height="48px" baseProfile="basic"><linearGradient id="PPS2EZlnmq9zQzR2uzDxia" x1="-28.671" x2="92.138" y1="50.465" y2="-19.284" gradientUnits="userSpaceOnUse"><stop offset="0" stop-color="#262626" stop-opacity="0"/><stop offset=".839" stop-color="#262626" stop-opacity=".671"/><stop offset="1" stop-color="#262626" stop-opacity=".8"/></linearGradient><path fill="url(#PPS2EZlnmq9zQzR2uzDxia)" d="M47,10.948c-1.648,0.73-3.421,1.217-5.291,1.448c1.901-1.129,3.364-2.929,4.05-5.056	c-1.779,1.043-3.75,1.809-5.847,2.213c-1.674-1.775-4.063-2.877-6.709-2.877c-5.083,0-9.203,4.084-9.203,9.119	c0,0.713,0.083,1.407,0.24,2.081c-7.647-0.384-14.429-4.019-18.966-9.536c-0.797,1.348-1.246,2.926-1.246,4.592	c0,3.166,1.621,5.953,4.093,7.595c-1.509-0.046-2.929-0.466-4.172-1.139c0,0.027,0,0.069,0,0.107c0,4.424,3.173,8.108,7.379,8.946	C10.56,28.653,9.747,28.77,8.91,28.77c-0.594,0-1.174-0.067-1.734-0.168c1.171,3.615,4.568,6.258,8.594,6.336	C12.62,37.38,8.653,38.843,4.34,38.843c-0.745,0-1.474-0.042-2.194-0.13c4.075,2.58,8.914,4.093,14.108,4.093	c16.925,0,26.184-13.898,26.184-25.956c0-0.395-0.012-0.789-0.031-1.177C44.213,14.397,45.77,12.787,47,10.948L47,10.948z"/></svg>